<svg width="101" height="20" viewBox="0 0 101 20" fill="none" xmlns="http://www.w3.org/2000/svg">
<path d="M14.5391 10.2695C14.5391 13.0898 13.7344 15.25 12.125 16.75C10.5234 18.25 8.20703 19 5.17578 19H0.324219V1.86719H5.70312C8.5 1.86719 10.6719 2.60547 12.2188 4.08203C13.7656 5.55859 14.5391 7.62109 14.5391 10.2695ZM10.7656 10.3633C10.7656 6.68359 9.14062 4.84375 5.89062 4.84375H3.95703V16H5.51562C9.01562 16 10.7656 14.1211 10.7656 10.3633ZM28.2031 14.2422C28.2031 15.7891 27.6445 17.0078 26.5273 17.8984C25.418 18.7891 23.8711 19.2344 21.8867 19.2344C20.0586 19.2344 18.4414 18.8906 17.0352 18.2031V14.8281C18.1914 15.3438 19.168 15.707 19.9648 15.918C20.7695 16.1289 21.5039 16.2344 22.168 16.2344C22.9648 16.2344 23.5742 16.082 23.9961 15.7773C24.4258 15.4727 24.6406 15.0195 24.6406 14.418C24.6406 14.082 24.5469 13.7852 24.3594 13.5273C24.1719 13.2617 23.8945 13.0078 23.5273 12.7656C23.168 12.5234 22.4297 12.1367 21.3125 11.6055C20.2656 11.1133 19.4805 10.6406 18.957 10.1875C18.4336 9.73438 18.0156 9.20703 17.7031 8.60547C17.3906 8.00391 17.2344 7.30078 17.2344 6.49609C17.2344 4.98047 17.7461 3.78906 18.7695 2.92188C19.8008 2.05469 21.2227 1.62109 23.0352 1.62109C23.9258 1.62109 24.7734 1.72656 25.5781 1.9375C26.3906 2.14844 27.2383 2.44531 28.1211 2.82812L26.9492 5.65234C26.0352 5.27734 25.2773 5.01562 24.6758 4.86719C24.082 4.71875 23.4961 4.64453 22.918 4.64453C22.2305 4.64453 21.7031 4.80469 21.3359 5.125C20.9688 5.44531 20.7852 5.86328 20.7852 6.37891C20.7852 6.69922 20.8594 6.98047 21.0078 7.22266C21.1562 7.45703 21.3906 7.6875 21.7109 7.91406C22.0391 8.13281 22.8086 8.53125 24.0195 9.10938C25.6211 9.875 26.7188 10.6445 27.3125 11.418C27.9062 12.1836 28.2031 13.125 28.2031 14.2422ZM38.5625 19L34.4375 5.55859H34.332C34.4805 8.29297 34.5547 10.1172 34.5547 11.0312V19H31.3086V1.86719H36.2539L40.3086 14.9688H40.3789L44.6797 1.86719H49.625V19H46.2383V10.8906C46.2383 10.5078 46.2422 10.0664 46.25 9.56641C46.2656 9.06641 46.3203 7.73828 46.4141 5.58203H46.3086L41.8906 19H38.5625ZM56.5156 12.4258C56.5156 13.7227 56.7266 14.7031 57.1484 15.3672C57.5781 16.0312 58.2734 16.3633 59.2344 16.3633C60.1875 16.3633 60.8711 16.0352 61.2852 15.3789C61.707 14.7148 61.918 13.7305 61.918 12.4258C61.918 11.1289 61.707 10.1562 61.2852 9.50781C60.8633 8.85938 60.1719 8.53516 59.2109 8.53516C58.2578 8.53516 57.5703 8.85938 57.1484 9.50781C56.7266 10.1484 56.5156 11.1211 56.5156 12.4258ZM65.5742 12.4258C65.5742 14.5586 65.0117 16.2266 63.8867 17.4297C62.7617 18.6328 61.1953 19.2344 59.1875 19.2344C57.9297 19.2344 56.8203 18.9609 55.8594 18.4141C54.8984 17.8594 54.1602 17.0664 53.6445 16.0352C53.1289 15.0039 52.8711 13.8008 52.8711 12.4258C52.8711 10.2852 53.4297 8.62109 54.5469 7.43359C55.6641 6.24609 57.2344 5.65234 59.2578 5.65234C60.5156 5.65234 61.625 5.92578 62.5859 6.47266C63.5469 7.01953 64.2852 7.80469 64.8008 8.82812C65.3164 9.85156 65.5742 11.0508 65.5742 12.4258ZM71.6445 19L66.6523 5.89844H70.3906L72.9219 13.3633C73.2031 14.3086 73.3789 15.2031 73.4492 16.0469H73.5195C73.5586 15.2969 73.7344 14.4023 74.0469 13.3633L76.5664 5.89844H80.3047L75.3125 19H71.6445ZM82.0391 2.51172C82.0391 1.34766 82.6875 0.765625 83.9844 0.765625C85.2812 0.765625 85.9297 1.34766 85.9297 2.51172C85.9297 3.06641 85.7656 3.5 85.4375 3.8125C85.1172 4.11719 84.6328 4.26953 83.9844 4.26953C82.6875 4.26953 82.0391 3.68359 82.0391 2.51172ZM85.7656 19H82.1914V5.89844H85.7656V19ZM94.9531 8.19531C94.1953 8.19531 93.6016 8.4375 93.1719 8.92188C92.7422 9.39844 92.4961 10.0781 92.4336 10.9609H97.4492C97.4336 10.0781 97.2031 9.39844 96.7578 8.92188C96.3125 8.4375 95.7109 8.19531 94.9531 8.19531ZM95.457 19.2344C93.3477 19.2344 91.6992 18.6523 90.5117 17.4883C89.3242 16.3242 88.7305 14.6758 88.7305 12.543C88.7305 10.3477 89.2773 8.65234 90.3711 7.45703C91.4727 6.25391 92.9922 5.65234 94.9297 5.65234C96.7812 5.65234 98.2227 6.17969 99.2539 7.23438C100.285 8.28906 100.801 9.74609 100.801 11.6055V13.3398H92.3516C92.3906 14.3555 92.6914 15.1484 93.2539 15.7188C93.8164 16.2891 94.6055 16.5742 95.6211 16.5742C96.4102 16.5742 97.1562 16.4922 97.8594 16.3281C98.5625 16.1641 99.2969 15.9023 100.062 15.543V18.3086C99.4375 18.6211 98.7695 18.8516 98.0586 19C97.3477 19.1562 96.4805 19.2344 95.457 19.2344Z" fill="white"/>
</svg>
